Coordinates
version=1
nRows=16
nColumns=22
inDegrees=yes

Units are S.I. units (second, meters, Newtons, ...)
If the header above contains a line with 'inDegrees', this indicates whether rotational values are in degrees (yes) or radians (no).

endheader
time	pelvis_tilt	pelvis_list	pelvis_rotation	pelvis_tx	pelvis_ty	pelvis_tz	hip_flexion_r	hip_adduction_r	hip_rotation_r	knee_angle_r	ankle_angle_r	subtalar_angle_r	hip_flexion_l	hip_adduction_l	hip_rotation_l	knee_angle_l	ankle_angle_l	subtalar_angle_l	lumbar_extension	lumbar_bending	lumbar_rotation
      3.47000000	      6.07132422	      3.59714975	    135.37499154	      0.62030008	      0.92199770	     -0.47158310	     24.49844450	      5.73966910	     10.18951180	    -25.19821851	      5.23018632	      9.90382336	      7.15760040	      2.57136002	      2.84863607	    -56.87698266	     -5.62981105	      8.87876842	     -6.48024097	      8.16351698	     -6.49499008
      3.48000000	      6.17313763	      3.88632804	    135.94404741	      0.61448203	      0.92313156	     -0.47746966	     23.74799107	      5.82319343	      9.45167835	    -25.07221741	      5.56936333	      9.73465785	      9.26310145	      1.28806564	      1.04518137	    -60.02138647	     -5.68478552	      8.74701700	     -6.73287490	      8.33282207	     -6.07383807
      3.49000000	      6.26320804	      4.13587298	    136.45116289	      0.60869124	      0.92423482	     -0.48327974	     23.00725193	      5.91683958	      8.84572411	    -24.93306955	      5.98412574	      9.46451325	     11.35183834	      0.02835847	     -0.58561494	    -62.96045698	     -5.41133158	      7.96644866	     -6.96438363	      8.45003639	     -5.56900129
      3.50000000	      6.29759866	      4.36934572	    136.87480494	      0.60281094	      0.92542327	     -0.48902799	     22.22226268	      6.00277808	      8.37569953	    -24.78311906	      6.42204820	      9.17190043	     13.33074891	     -1.16918483	     -2.08606992	    -65.62617196	     -4.83660872	      6.63270945	     -7.22794938	      8.51437287	     -4.96753862
      3.51000000	      6.26122276	      4.56507358	    137.22907929	      0.59679736	      0.92670029	     -0.49470040	     21.40343431	      6.04489511	      8.03147186	    -24.63752550	      6.88362784	      8.89425000	     15.19266464	     -2.25821029	     -3.46911292	    -67.98822518	     -4.02326290	      4.99296485	     -7.51373022	      8.49786408	     -4.30035225
      3.52000000	      6.16082051	      4.70319308	    137.54221408	      0.59062915	      0.92803946	     -0.50023415	     20.57292893	      6.01462305	      7.77031569	    -24.49603038	      7.35402653	      8.62300076	     16.96215177	     -3.20827891	     -4.73395845	    -70.03533751	     -3.09097322	      3.17247437	     -7.79870348	      8.39477368	     -3.58908925
      3.53000000	      6.00608951	      4.78151451	    137.84967487	      0.58431207	      0.92941506	     -0.50555997	     19.73702763	      5.90302041	      7.56999358	    -24.34913789	      7.83392016	      8.36150815	     18.66000665	     -4.01222877	     -5.87224784	    -71.76694677	     -2.12753026	      1.33704198	     -8.07433030	      8.21763602	     -2.88029165
      3.54000000	      5.80770271	      4.81424376	    138.16055865	      0.57787302	      0.93080690	     -0.51068254	     18.90190935	      5.72284935	      7.38651772	    -24.20697059	      8.29399482	      8.11003382	     20.28745369	     -4.70011293	     -6.90739774	    -73.18489121	     -1.21418347	     -0.38135380	     -8.34257490	      7.98229779	     -2.18952769
      3.55000000	      5.55609086	      4.79870793	    138.51588991	      0.57124271	      0.93222322	     -0.51555380	     18.03470120	      5.44759200	      7.19161167	    -24.02750484	      8.77631838	      7.85166594	     21.83315150	     -5.23179766	     -7.80350517	    -74.27601853	     -0.38542347	     -1.92690199	     -8.60182751	      7.68559568	     -1.54361241
      3.56000000	      5.26949307	      4.75076645	    138.91461636	      0.56443182	      0.93364083	     -0.52019690	     17.13569042	      5.10194329	      6.96219536	    -23.80509737	      9.25079240	      7.58930211	     23.29714482	     -5.65006440	     -8.58497539	    -75.04818733	      0.33447456	     -3.22635492	     -8.84843135	      7.35443341	     -0.94551344
      3.57000000	      4.95824423	      4.67546976	    139.35953792	      0.55745294	      0.93504199	     -0.52462436	     16.20795842	      4.69800400	      6.68876088	    -23.53810728	      9.69939044	      7.33972313	     24.67768014	     -5.97231523	     -9.26060355	    -75.50558943	      0.97088308	     -4.24622235	     -9.07949784	      6.99807409	     -0.38688649
      3.58000000	      4.64568645	      4.60380864	    139.85997700	      0.55032493	      0.93638513	     -0.52885948	     15.24586734	      4.27706180	      6.34426118	    -23.22492328	     10.17202577	      7.07292571	     25.98110995	     -6.25813812	     -9.83137248	    -75.67746643	      1.47871908	     -5.04311650	     -9.29756372	      6.65905790	      0.11484839
      3.59000000	      4.32752475	      4.51107775	    140.41710078	      0.54307368	      0.93765404	     -0.53287444	     14.27718706	      3.81702285	      5.93121841	    -22.88690938	     10.59627258	      6.86060492	     27.21010201	     -6.46968063	    -10.29391884	    -75.55813076	      1.96157299	     -5.57661406	     -9.49458697	      6.31004962	      0.57532257
      3.60000000	      4.03283517	      4.43177557	    141.01936823	      0.53576297	      0.93880708	     -0.53673100	     13.29784852	      3.38167036	      5.48958028	    -22.52123289	     11.01379368	      6.64112648	     28.36966470	     -6.68450539	    -10.66522335	    -75.17606887	      2.37014305	     -6.01542782	     -9.67486764	      5.99419642	      0.99763428
      3.61000000	      3.76869534	      4.35247219	    141.65926438	      0.52841371	      0.93980820	     -0.54044043	     12.34531617	      2.96435820	      4.99457642	    -22.16538759	     11.41350373	      6.46642377	     29.46855614	     -6.90375173	    -10.96301282	    -74.53787349	      2.75810389	     -6.31817994	     -9.82435373	      5.70156957	      1.36895724
      3.62000000	      3.50796481	      4.30445112	    142.33847910	      0.52103060	      0.94072469	     -0.54399590	     11.35574787	      2.58292458	      4.50437446	    -21.78718811	     11.78181122	      6.23790483	     30.45989201	     -7.11429742	    -11.16279114	    -73.64362620	      3.07298201	     -6.63851491	     -9.99658888	      5.43766899	      1.72948075
